<?xml version="1.0" encoding="UTF-8"?>
<svg version="1.1" xmlns="http://www.w3.org/2000/svg" width="1024" height="1024">
<path d="M0 0 C10.56 0 21.12 0 32 0 C32.33 15.18 32.66 30.36 33 46 C57.42 46 81.84 46 107 46 C110.05868527 55.1760558 108 65.32758791 108 75 C82.92 75 57.84 75 32 75 C32 96.12 32 117.24 32 139 C65 139 98 139 132 139 C132.33 148.24 132.66 157.48 133 167 C130.11159832 168.44420084 127.53626179 168.18356389 124.3125 168.24609375 C122.96093075 168.27902078 121.6093684 168.31223261 120.2578125 168.34570312 C118.12472107 168.39319812 115.99165995 168.43765307 113.85839844 168.47680664 C111.8011405 168.51644232 109.74444816 168.56799284 107.6875 168.62109375 C106.45386719 168.6461499 105.22023438 168.67120605 103.94921875 168.69702148 C100.88046156 168.69877664 100.88046156 168.69877664 99 171 C98.67 170.34 98.34 169.68 98 169 C97.01 168.67 96.02 168.34 95 168 C95 168.66 95 169.32 95 170 C92.36 169.34 89.72 168.68 87 168 C87 168.66 87 169.32 87 170 C86.34 169.67 85.68 169.34 85 169 C83.4804236 168.84876169 81.95527498 168.75118307 80.4296875 168.68359375 C79.53378906 168.64169922 78.63789063 168.59980469 77.71484375 168.55664062 C76.77769531 168.51732422 75.84054687 168.47800781 74.875 168.4375 C73.45767578 168.37272461 73.45767578 168.37272461 72.01171875 168.30664062 C69.67462908 168.20040928 67.3374317 168.09836824 65 168 C64.67 168.66 64.34 169.32 64 170 C64 169.34 64 168.68 64 168 C59.54140138 168.13835803 55.08320214 168.28694579 50.625 168.4375 C49.35398437 168.47681641 48.08296875 168.51613281 46.7734375 168.55664062 C44.95585937 168.61948242 44.95585937 168.61948242 43.1015625 168.68359375 C41.98088379 168.72025146 40.86020508 168.75690918 39.70556641 168.79467773 C37.03287229 168.82596013 37.03287229 168.82596013 35 170 C35 169.34 35 168.68 35 168 C11.9 168 -11.2 168 -35 168 C-35 158.43 -35 148.86 -35 139 C-17.675 138.505 -17.675 138.505 0 138 C0.33 129.42 0.66 120.84 1 112 C0.34 112 -0.32 112 -1 112 C-0.67 111.34 -0.34 110.68 0 110 C0.09669125 107.95837619 0.12796587 105.91354058 0.12939453 103.86962891 C0.13412277 101.93719833 0.13412277 101.93719833 0.13894653 99.96572876 C0.13715632 98.55267299 0.13510526 97.13961754 0.1328125 95.7265625 C0.13348598 94.28168725 0.13445637 92.83681212 0.13571167 91.39193726 C0.1371875 88.36056441 0.13503838 85.32922099 0.13037109 82.29785156 C0.12468405 78.41512511 0.12794701 74.53246793 0.13394356 70.64974403 C0.13756094 67.66431153 0.13640499 64.67889538 0.13381577 61.69346237 C0.13314923 60.26214973 0.13396538 58.83083559 0.13629532 57.39952469 C0.13883996 55.39607014 0.13427267 53.39261038 0.12939453 51.38916016 C0.12859894 50.24935699 0.12780334 49.10955383 0.12698364 47.93521118 C0.01830568 45.42313362 -0.30997842 43.39708398 -1 41 C-1.06479389 39.62636949 -1.08602587 38.24995657 -1.0625 36.875 C-1.01932221 34.19797713 -0.9911357 31.53875248 -1.03515625 28.86328125 C-1.08967337 23.77761283 -0.72009027 19.04063191 0 14 C0.49250065 7.82036081 0.49250065 7.82036081 -1 2 C-0.67 1.34 -0.34 0.68 0 0 Z M0 28 C1 30 1 30 1 30 Z " fill="#2B2C3A" transform="translate(289,437)"/>
<path d="M0 0 C26.11196369 -0.60374483 26.11196369 -0.60374483 34 4 C34.72960937 4.42410156 35.45921875 4.84820312 36.2109375 5.28515625 C44.10586191 10.55333072 48.23508173 17.88327692 50.39526367 26.97314453 C52.22421265 37.30957163 51.47589654 48.24142494 51.51123047 58.69873047 C51.52692961 61.91134622 51.55990243 65.12346998 51.59375 68.3359375 C51.59072876 69.31726654 51.58770752 70.29859558 51.58459473 71.30966187 C51.64279019 76.61524519 51.98249517 80.43255751 55 85 C57.12958609 86.72308801 57.12958609 86.72308801 59.625 87.9375 C74.27861126 96.18551219 74.27861126 96.18551219 77.46875 103.8359375 C78.98694704 110.0203578 77.7434706 115.35931562 74.5 120.75 C71.09576148 125.39288916 66.93655523 128.15829293 62 131 C61.030625 131.61875 60.06125 132.2375 59.0625 132.875 C57 134 57 134 55 134 C53.26364131 138.2830181 51.88158118 141.86589252 51.82641602 146.51220703 C51.81292618 147.42390656 51.79943634 148.33560608 51.78553772 149.27493286 C51.77509933 150.25928314 51.76466095 151.24363342 51.75390625 152.2578125 C51.72094975 154.34896223 51.68773842 156.44010797 51.65429688 158.53125 C51.60703325 161.82256138 51.5626335 165.11385869 51.52319336 168.40527344 C51.48321356 171.58546309 51.43171482 174.7653135 51.37890625 177.9453125 C51.3704921 178.9175174 51.36207794 179.88972229 51.35340881 180.89138794 C51.16080427 191.66174058 49.36129186 201.53184557 41.875 209.6875 C31.47562146 219.42025171 19.0003396 220.31862022 5.4375 220.125 C1.333125 220.08375 -2.77125 220.0425 -7 220 C-7 211.75 -7 203.5 -7 195 C-5.68 194.67 -4.36 194.34 -3 194 C-3 194.66 -3 195.32 -3 196 C-0.36 196 2.28 196 5 196 C5 195.34 5 194.68 5 194 C5.99 194.33 6.98 194.66 8 195 C10.30336625 194.68947314 10.30336625 194.68947314 12.6875 194.0625 C14.125 193.70833333 15.5625 193.35416667 17 193 C19.37405754 183.32801236 19.20051306 173.87649666 19.0625 164 C18.68376292 131.7118409 18.68376292 131.7118409 28 120 C33.88624339 115 33.88624339 115 37 115 C37.495 113.515 37.495 113.515 38 112 C38.99 112.33 39.98 112.66 41 113 C39.57781759 109.47840547 38.06022349 108.15056108 34.8125 106.25 C27.87207155 101.7906909 22.74352238 96.54887773 20.48828125 88.46875 C17.48296668 73.27387952 19.09271394 57.3428554 20 42 C19.34 41.67 18.68 41.34 18 41 C18.66 41 19.32 41 20 41 C18.51721162 33.68421853 18.51721162 33.68421853 14.875 27.3125 C11.41011217 25.73070338 8.84357884 25.71977403 5.0859375 25.95703125 C3 26 3 26 0 25 C0 16.75 0 8.5 0 0 Z " fill="#2A2A38" transform="translate(611,390)"/>
<path d="M0 0 C0.66 0 1.32 0 2 0 C2.33 0.99 2.66 1.98 3 3 C5.09214603 4.32462883 7.12540445 5.47005474 9.32421875 6.58984375 C9.97364944 6.93048355 10.62308014 7.27112335 11.29219055 7.62208557 C13.4195791 8.73585043 15.55352524 9.8364156 17.6875 10.9375 C19.15620265 11.70457439 20.62429921 12.47281034 22.09179688 13.2421875 C24.30306427 14.4014385 26.51460949 15.56010247 28.72799683 16.71530151 C34.85384078 19.91298914 40.9387149 23.18145739 47 26.5 C47.87462891 26.97759766 48.74925781 27.45519531 49.65039062 27.94726562 C54.33872799 30.51528541 58.99943559 33.12727694 63.64404297 35.7734375 C70.2830616 39.55537786 76.9736668 42.98486851 84 46 C86 47 86 47 87.80151367 48.38891602 C90.16929404 50.12406123 92.56547259 51.43577576 95.17578125 52.77734375 C96.16900391 53.29103516 97.16222656 53.80472656 98.18554688 54.33398438 C99.21744141 54.86314453 100.24933594 55.39230469 101.3125 55.9375 C107.61156091 59.18054146 113.88451603 62.42041489 120 66 C116.93310872 68.41957798 113.75486903 70.33723641 110.3359375 72.22265625 C109.22275146 72.83858643 108.10956543 73.4545166 106.96264648 74.08911133 C105.76678763 74.74694992 104.57090496 75.40474523 103.375 76.0625 C102.14574807 76.74147899 100.91666392 77.42076183 99.68774414 78.1003418 C97.24555132 79.4504377 94.80257922 80.79910491 92.35888672 82.14648438 C88.04668217 84.52606404 83.74141074 86.91796412 79.4375 89.3125 C78.01047719 90.10557766 76.58339476 90.89854805 75.15625 91.69140625 C74.46917969 92.07312988 73.78210938 92.45485352 73.07421875 92.84814453 C70.97697371 94.01278697 68.87917329 95.17642358 66.78125 96.33984375 C63.03759793 98.41635105 59.29580207 100.49617216 55.55517578 102.578125 C53.75701731 103.57874367 51.95848008 104.57868186 50.15966797 105.578125 C37.22886691 112.76680219 24.36692856 120.05585658 11.61474609 127.55761719 C10.67324707 128.11094727 9.73174805 128.66427734 8.76171875 129.234375 C7.93631592 129.72131836 7.11091309 130.20826172 6.26049805 130.70996094 C4.20414562 131.88349655 2.12906964 132.96554024 0 134 C-1.17666109 130.47001672 -1.02013769 127.86362584 -0.87890625 124.14453125 C-0.85529526 123.48289474 -0.83168427 122.82125824 -0.80735779 122.13957214 C-0.73090143 120.03031998 -0.64680043 117.9214518 -0.5625 115.8125 C-0.5092612 114.38087804 -0.45652093 112.94923746 -0.40429688 111.51757812 C-0.27531118 108.01148424 -0.13946876 104.50569429 0 101 C1.11632812 100.41734375 2.23265625 99.8346875 3.3828125 99.234375 C12.38129409 94.52468899 21.33990067 89.75001514 30.25 84.875 C44.93383356 76.84835152 44.93383356 76.84835152 49.75 74.25 C50.36391602 73.91468262 50.97783203 73.57936523 51.61035156 73.23388672 C55.76983659 71 55.76983659 71 58 71 C58.495 69.02 58.495 69.02 59 67 C59 67.66 59 68.32 59 69 C59.99 68.34 60.98 67.68 62 67 C60.81748657 66.37508667 60.81748657 66.37508667 59.61108398 65.73754883 C43.49811935 57.21169443 27.46740062 48.58599984 11.65698242 39.50708008 C7.78624182 37.31153825 3.89005259 35.16114033 0 33 C0 22.11 0 11.22 0 0 Z " fill="#2A2A39" transform="translate(710,434)"/>
<path d="M0 0 C3.25458869 3.25458869 2.29603956 7.19474836 2.32226562 11.62695312 C2.31743164 13.51317383 2.31743164 13.51317383 2.3125 15.4375 C2.32861328 16.69111328 2.34472656 17.94472656 2.36132812 19.23632812 C2.36197266 20.43580078 2.36261719 21.63527344 2.36328125 22.87109375 C2.36626221 23.97380615 2.36924316 25.07651855 2.37231445 26.21264648 C2 29 2 29 0.82788086 30.68823242 C-1.55439078 32.39785517 -4.01108154 33.75509199 -6.609375 35.1171875 C-7.74592529 35.71805176 -8.88247559 36.31891602 -10.0534668 36.93798828 C-10.65637543 37.25382874 -11.25928406 37.56966919 -11.88046265 37.89508057 C-15.05327794 39.55811413 -18.21620861 41.23969928 -21.37890625 42.921875 C-22.34006096 43.43266098 -22.34006096 43.43266098 -23.32063293 43.95376587 C-32.16154214 48.66616795 -40.85306028 53.64281649 -49.55224609 58.61035156 C-53.35276751 60.76799847 -57.17454167 62.88695614 -61 65 C-52.89507524 69.4521806 -44.74406582 73.81347384 -36.57522583 78.14672852 C-34.46195686 79.27022523 -32.35169536 80.39921138 -30.24194336 81.52929688 C-24.11763099 84.80324655 -18.00239308 88.04608086 -11.72265625 91.015625 C-10.38847656 91.66096191 -10.38847656 91.66096191 -9.02734375 92.31933594 C-7.43799278 93.08063757 -5.83549039 93.81534042 -4.21875 94.51660156 C-2.12890625 95.53125 -2.12890625 95.53125 1 98 C2.02075644 101.01432918 2.0462166 103.83891576 2 107 C2.02280029 107.69706055 2.04560059 108.39412109 2.0690918 109.11230469 C2.13227052 111.11562711 2.12892234 113.12068543 2.125 115.125 C2.12886719 115.78886719 2.13273437 116.45273437 2.13671875 117.13671875 C2.12811635 121.53254607 1.70751696 125.67628526 1 130 C-3.27699157 128.69249093 -7.00854695 127.04660084 -10.91015625 124.8671875 C-12.0496875 124.23425781 -13.18921875 123.60132813 -14.36328125 122.94921875 C-15.59637678 122.25785284 -16.82944905 121.56644543 -18.0625 120.875 C-19.35647186 120.15441079 -20.65074844 119.43436852 -21.9453125 118.71484375 C-24.6328575 117.22053851 -27.3190799 115.72389525 -30.00439453 114.22558594 C-35.56427092 111.12569053 -41.13993821 108.05452213 -46.71560669 104.9831543 C-49.70435519 103.33643162 -52.69197694 101.68766737 -55.6796875 100.0390625 C-56.57147453 99.54705353 -56.57147453 99.54705353 -57.48127747 99.04510498 C-61.28719728 96.94530922 -65.09276349 94.84487368 -68.89813232 92.74407959 C-71.51200839 91.3010901 -74.1259954 89.85830167 -76.73999023 88.41552734 C-77.97230445 87.73528862 -79.2045658 87.0549541 -80.43676758 86.37451172 C-87.94602182 82.22781218 -95.46473564 78.09925983 -103 74 C-103 72.35 -103 70.7 -103 69 C-103.66 68.67 -104.32 68.34 -105 68 C-104.855625 67.484375 -104.71125 66.96875 -104.5625 66.4375 C-103.86720562 63.88442158 -103.86720562 63.88442158 -104.078125 60.72265625 C-102.86337613 56.52825165 -102.39663595 56.18377474 -98.85546875 54 C-96.97982367 52.97457492 -95.08910906 51.97643437 -93.1875 51 C-92.16720703 50.45021484 -91.14691406 49.90042969 -90.09570312 49.33398438 C-86.74223188 47.53293382 -83.3716271 45.76679149 -80 44 C-76.50977045 42.1374942 -73.02397059 40.26686266 -69.53808594 38.39624023 C-67.16484115 37.12295902 -64.7890402 35.8546391 -62.41113281 34.59008789 C-54.08855345 30.15922775 -45.87858705 25.55549168 -37.69848633 20.86791992 C-28.80398047 15.81025973 -19.72646297 11.12431572 -10.60522461 6.49194336 C-9.51218018 5.93385986 -8.41913574 5.37577637 -7.29296875 4.80078125 C-6.3186792 4.30747314 -5.34438965 3.81416504 -4.34057617 3.3059082 C-1.9042057 2.08618452 -1.9042057 2.08618452 0 0 Z " fill="#292A38" transform="translate(267,437)"/>
<path d="M0 0 C0 50.16 0 100.32 0 152 C-10 153 -10 153 -36 152 C-36 102.17 -36 52.34 -36 1 C-1 0 -1 0 0 0 Z " fill="#2B2B3A" transform="translate(529,434)"/>
<path d="M0 0 C0.9821994 3.27626375 1.11580914 6.22788119 1.09765625 9.640625 C1.09443359 10.71054687 1.09121094 11.78046875 1.08789062 12.8828125 C1.07951172 13.99398438 1.07113281 15.10515625 1.0625 16.25 C1.05798828 17.37664062 1.05347656 18.50328125 1.04882812 19.6640625 C1.03705397 22.44276217 1.0206084 25.22135409 1 28 C-4.72960948 30.45741805 -10.14417574 30.27541321 -16.26147461 30.24291992 C-17.38964096 30.24481827 -18.51780731 30.24671661 -19.68016052 30.24867249 C-23.42095857 30.25238259 -27.1615628 30.24165075 -30.90234375 30.23046875 C-33.5356087 30.22927422 -36.16887408 30.22882436 -38.80213928 30.2290802 C-44.34622561 30.22814284 -49.89025735 30.21947455 -55.43432617 30.20581055 C-61.04403772 30.19203055 -66.65369902 30.18478095 -72.26342773 30.18530273 C-103.51954779 30.18796975 -134.75885082 30.07581522 -166 29 C-167.35700647 26.28598706 -167.1123861 24.15153684 -167.09765625 21.1171875 C-167.09443359 19.95058594 -167.09121094 18.78398437 -167.08789062 17.58203125 C-167.07951172 16.35871094 -167.07113281 15.13539063 -167.0625 13.875 C-167.05798828 12.64394531 -167.05347656 11.41289062 -167.04882812 10.14453125 C-167.0370133 7.09630608 -167.02054028 4.04817686 -167 1 C-145.96417766 0.86942844 -124.92835423 0.73903331 -103.89252949 0.60884857 C-94.12537395 0.5483983 -84.35821879 0.48789016 -74.59106445 0.42724609 C-66.07863742 0.37439275 -57.56620972 0.32164767 -49.05378121 0.26903296 C-44.54598357 0.24116679 -40.03818628 0.21324617 -35.53038979 0.18519592 C-31.28778476 0.15879757 -27.04517886 0.13254395 -22.80257225 0.10640144 C-21.2453292 0.09678034 -19.68808648 0.08710631 -18.13084412 0.07737541 C-16.00436995 0.06409542 -13.8778947 0.05100604 -11.75141907 0.03796387 C-10.56138433 0.03058952 -9.37134958 0.02321518 -8.14525318 0.01561737 C-5.43009073 0.00213556 -2.7151872 -0.00310025 0 0 Z " fill="#2B2B3A" transform="translate(413,394)"/>
<path d="M0 0 C1.0572226 -0.00281982 2.11444519 -0.00563965 3.20370483 -0.00854492 C4.37358948 -0.00652069 5.54347412 -0.00449646 6.74880981 -0.00241089 C7.97308685 -0.00416321 9.19736389 -0.00591553 10.45874023 -0.00772095 C13.82656513 -0.01137957 17.19432895 -0.0105055 20.56215048 -0.00734186 C24.08149392 -0.0048171 27.60083468 -0.00715623 31.12017822 -0.00872803 C37.03350291 -0.01054986 42.94681514 -0.00814356 48.86013794 -0.00338745 C55.69984561 0.00205017 62.53952344 0.00029621 69.37923038 -0.00521386 C75.24506888 -0.00975059 81.1108984 -0.01039263 86.9767381 -0.00777519 C90.48288851 -0.00621486 93.98902489 -0.00601189 97.49517441 -0.00931168 C101.40525218 -0.01273415 105.31529652 -0.00799144 109.22537231 -0.00241089 C110.3912085 -0.00443512 111.55704468 -0.00645935 112.75820923 -0.00854492 C113.82107147 -0.0057251 114.88393372 -0.00290527 115.97900391 0 C117.3666586 0.00056554 117.3666586 0.00056554 118.78234673 0.0011425 C121.1164856 0.12698364 121.1164856 0.12698364 124.1164856 1.12698364 C124.1164856 8.71698364 124.1164856 16.30698364 124.1164856 24.12698364 C81.5464856 24.12698364 38.9764856 24.12698364 -4.8835144 24.12698364 C-5.2135144 16.53698364 -5.5435144 8.94698364 -5.8835144 1.12698364 C-4.22721697 -0.52931379 -2.27928249 0.00092968 0 0 Z " fill="#00A7FE" transform="translate(452.8835144042969,605.8730163574219)"/>
<path d="M0 0 C5.68616938 6.00206768 8.11491896 12.07411285 7.953125 20.28515625 C7.0631415 28.6483836 3.29453002 33.84867496 -2.99609375 39.1875 C-9.62381619 43.74755186 -16.50979876 43.4801314 -24.3125 42.78125 C-30.49626155 41.13158837 -35.53258361 36.86113764 -39.3125 31.78125 C-43.24414863 24.02948886 -43.10907498 16.10219244 -41.0625 7.81640625 C-39.8647407 4.56623647 -37.98833967 2.92192173 -35.3125 0.78125 C-34.55453125 0.11802734 -34.55453125 0.11802734 -33.78125 -0.55859375 C-24.09201782 -8.44252088 -9.49089657 -8.06726208 0 0 Z " fill="#02A6FC" transform="translate(528.3125,369.21875)"/>
<path d="M0 0 C11.22 0 22.44 0 34 0 C34 0.33 34 0.66 34 1 C23.44 1 12.88 1 2 1 C2.03954567 8.15018443 2.03954567 8.15018443 2.09008789 15.30029297 C2.09258545 16.18861816 2.09508301 17.07694336 2.09765625 17.9921875 C2.10289307 18.90339355 2.10812988 19.81459961 2.11352539 20.75341797 C2 23 2 23 1 25 C54.46 25 107.92 25 163 25 C163 17.08 163 9.16 163 1 C130.66 1 98.32 1 65 1 C65 0.67 65 0.34 65 0 C98 0 131 0 165 0 C165 8.91 165 17.82 165 27 C110.55 27 56.1 27 0 27 C0 18.09 0 9.18 0 0 Z " fill="#08070C" transform="translate(255,577)"/>
<path d="M0 0 C2.26510904 9.06043615 1 18.66071618 1 28 C-53.45 28 -107.9 28 -164 28 C-164 27.67 -164 27.34 -164 27 C-110.54 27 -57.08 27 -2 27 C-2 19.08 -2 11.16 -2 3 C-55.46 3 -108.92 3 -164 3 C-164.33 2.34 -164.66 1.68 -165 1 C-144.22494531 0.86942608 -123.4498895 0.73903082 -102.67483234 0.60884857 C-93.02874512 0.54839935 -83.38265826 0.48789155 -73.73657227 0.42724609 C-65.32962068 0.37439129 -56.92266841 0.32164613 -48.5157153 0.26903296 C-44.063809 0.24116778 -39.61190307 0.21324749 -35.15999794 0.18519592 C-30.96992259 0.15879588 -26.77984634 0.13254243 -22.58976936 0.10640144 C-21.051877 0.09678102 -19.51398496 0.08710701 -17.97609329 0.07737541 C-15.87589351 0.06409361 -13.77569262 0.05100486 -11.67549133 0.03796387 C-10.50020528 0.03058952 -9.32491922 0.02321518 -8.11401844 0.01561737 C-5.40926771 0.00205255 -2.70477616 -0.00308133 0 0 Z " fill="#07070B" transform="translate(413,394)"/>
<path d="M0 0 C0 50.16 0 100.32 0 152 C-5.94 151.34 -11.88 150.68 -18 150 C-18 149.67 -18 149.34 -18 149 C-12.72 149 -7.44 149 -2 149 C-2 100.82 -2 52.64 -2 3 C-12.56 3 -23.12 3 -34 3 C-34 51.51 -34 100.02 -34 150 C-34.33 150 -34.66 150 -35 150 C-35 100.83 -35 51.66 -35 1 C-1 0 -1 0 0 0 Z " fill="#0D0F14" transform="translate(529,434)"/>
<path d="M0 0 C1.0572226 -0.00281982 2.11444519 -0.00563965 3.20370483 -0.00854492 C4.37358948 -0.00652069 5.54347412 -0.00449646 6.74880981 -0.00241089 C7.97308685 -0.00416321 9.19736389 -0.00591553 10.45874023 -0.00772095 C13.82656513 -0.01137957 17.19432895 -0.0105055 20.56215048 -0.00734186 C24.08149392 -0.0048171 27.60083468 -0.00715623 31.12017822 -0.00872803 C37.03350291 -0.01054986 42.94681514 -0.00814356 48.86013794 -0.00338745 C55.69984561 0.00205017 62.53952344 0.00029621 69.37923038 -0.00521386 C75.24506888 -0.00975059 81.1108984 -0.01039263 86.9767381 -0.00777519 C90.48288851 -0.00621486 93.98902489 -0.00601189 97.49517441 -0.00931168 C101.40525218 -0.01273415 105.31529652 -0.00799144 109.22537231 -0.00241089 C110.3912085 -0.00443512 111.55704468 -0.00645935 112.75820923 -0.00854492 C113.82107147 -0.0057251 114.88393372 -0.00290527 115.97900391 0 C117.3666586 0.00056554 117.3666586 0.00056554 118.78234673 0.0011425 C121.1164856 0.12698364 121.1164856 0.12698364 124.1164856 1.12698364 C124.1164856 8.71698364 124.1164856 16.30698364 124.1164856 24.12698364 C81.5464856 24.12698364 38.9764856 24.12698364 -4.8835144 24.12698364 C-5.2135144 16.53698364 -5.5435144 8.94698364 -5.8835144 1.12698364 C-4.22721697 -0.52931379 -2.27928249 0.00092968 0 0 Z M-3.8835144 2.12698364 C-3.8835144 9.05698364 -3.8835144 15.98698364 -3.8835144 23.12698364 C37.6964856 23.12698364 79.2764856 23.12698364 122.1164856 23.12698364 C122.1164856 16.19698364 122.1164856 9.26698364 122.1164856 2.12698364 C80.5364856 2.12698364 38.9564856 2.12698364 -3.8835144 2.12698364 Z " fill="#1389DF" transform="translate(452.8835144042969,605.8730163574219)"/>
<path d="M0 0 C0.515625 0.2475 1.03125 0.495 1.5625 0.75 C0.4178125 1.3378125 0.4178125 1.3378125 -0.75 1.9375 C-3.90192082 4.06321404 -5.01084928 5.22091663 -6.4375 8.75 C-6.51839983 10.47614695 -6.53834397 12.20575719 -6.51171875 13.93359375 C-6.50100342 14.8352124 -6.49028809 15.73683105 -6.47924805 16.66577148 C-6.46547119 17.35356689 -6.45169434 18.0413623 -6.4375 18.75 C5.48397233 25.5656966 17.45268642 32.2739693 29.5625 38.75 C38.82016663 43.70206245 47.99395614 48.77893323 57.1184082 53.97192383 C63.95994646 57.86026288 70.84015012 61.67191735 77.75 65.4375 C78.6771582 65.94297363 79.60431641 66.44844727 80.55957031 66.96923828 C84.20574392 68.95067632 87.84997154 70.89373577 91.5625 72.75 C91.8925 68.79 92.2225 64.83 92.5625 60.75 C95.52332018 66.67164036 95.71431433 70.22305215 94.5625 76.75 C90.28550843 75.44249093 86.55395305 73.79660084 82.65234375 71.6171875 C81.5128125 70.98425781 80.37328125 70.35132813 79.19921875 69.69921875 C77.96612322 69.00785284 76.73305095 68.31644543 75.5 67.625 C74.20602814 66.90441079 72.91175156 66.18436852 71.6171875 65.46484375 C68.9296425 63.97053851 66.2434201 62.47389525 63.55810547 60.97558594 C57.99822908 57.87569053 52.42256179 54.80452213 46.84689331 51.7331543 C43.85814481 50.08643162 40.87052306 48.43766737 37.8828125 46.7890625 C37.28828781 46.46105652 36.69376312 46.13305054 36.08122253 45.79510498 C32.27530272 43.69530922 28.46973651 41.59487368 24.66436768 39.49407959 C22.05049161 38.0510901 19.4365046 36.60830167 16.82250977 35.16552734 C15.59019555 34.48528862 14.3579342 33.8049541 13.12573242 33.12451172 C5.61647818 28.97781218 -1.90223564 24.84925983 -9.4375 20.75 C-9.4375 19.1 -9.4375 17.45 -9.4375 15.75 C-10.0975 15.42 -10.7575 15.09 -11.4375 14.75 C-11.293125 14.234375 -11.14875 13.71875 -11 13.1875 C-10.32112909 10.59790411 -10.32112909 10.59790411 -10.3125 7.25 C-9.37684179 3.50736718 -9.19891145 3.13760447 -6.125 1.25 C-2.4375 -0.25 -2.4375 -0.25 0 0 Z " fill="#22232B" transform="translate(173.4375,490.25)"/>
<path d="M0 0 C7.92 0 15.84 0 24 0 C24.33 15.18 24.66 30.36 25 46 C48.1 46.33 71.2 46.66 95 47 C95 47.66 95 48.32 95 49 C85.62964062 49.02312504 76.25929099 49.04091591 66.88890934 49.05181217 C62.53831541 49.05704065 58.18774093 49.06413765 53.8371582 49.07543945 C49.64209742 49.08626959 45.44705541 49.0922771 41.25198174 49.09487724 C39.64793032 49.09673126 38.04387997 49.10035144 36.4398365 49.10573006 C34.20083485 49.11294219 31.9619117 49.11399087 29.72290039 49.11352539 C28.44604874 49.115746 27.16919708 49.11796661 25.85365295 49.12025452 C23 49 23 49 22 48 C21.9071274 46.58774954 21.88253228 45.17091066 21.88647461 43.75561523 C21.88655014 42.85475693 21.88662567 41.95389862 21.88670349 41.02574158 C21.89186478 40.04658279 21.89702606 39.06742401 21.90234375 38.05859375 C21.9037587 37.06118668 21.90517365 36.0637796 21.90663147 35.03614807 C21.91224886 31.83656876 21.92480429 28.63705831 21.9375 25.4375 C21.94251276 23.27408955 21.94707605 21.11067801 21.95117188 18.94726562 C21.96137495 13.63146226 21.98094692 8.31580861 22 3 C14.41 3 6.82 3 -1 3 C-0.67 2.01 -0.34 1.02 0 0 Z " fill="#101016" transform="translate(297,437)"/>
<path d="M0 0 C0.66 0 1.32 0 2 0 C2 27.39 2 54.78 2 83 C1.34 83 0.68 83 0 83 C0 74.09 0 65.18 0 56 C-0.66 56 -1.32 56 -2 56 C-1.67 55.34 -1.34 54.68 -1 54 C-0.88082832 52.27472879 -0.82282674 50.54507102 -0.79467773 48.81591797 C-0.77473251 47.73494843 -0.75478729 46.65397888 -0.73423767 45.54025269 C-0.71752518 44.36939117 -0.70081268 43.19852966 -0.68359375 41.9921875 C-0.66281265 40.79643097 -0.64203156 39.60067444 -0.62062073 38.36868286 C-0.55507711 34.53751536 -0.49621782 30.70627762 -0.4375 26.875 C-0.39431937 24.28254473 -0.35070523 21.69009664 -0.30664062 19.09765625 C-0.19939081 12.73184573 -0.0976334 6.36596487 0 0 Z " fill="#09080E" transform="translate(290,493)"/>
<path d="M0 0 C1.65 0 3.3 0 5 0 C5 0.99 5 1.98 5 3 C4.34 3 3.68 3 3 3 C3 20.49 3 37.98 3 56 C2.01 55.67 1.02 55.34 0 55 C0.01160156 54.32453125 0.02320313 53.6490625 0.03515625 52.953125 C0.04417969 52.06109375 0.05320312 51.1690625 0.0625 50.25 C0.07990234 48.92742187 0.07990234 48.92742187 0.09765625 47.578125 C0.00754966 45.19931093 -0.40699942 43.28861161 -1 41 C-1.06479389 39.62636949 -1.08602587 38.24995657 -1.0625 36.875 C-1.01932221 34.19797713 -0.9911357 31.53875248 -1.03515625 28.86328125 C-1.08967337 23.77761283 -0.72009027 19.04063191 0 14 C0.49250065 7.82036081 0.49250065 7.82036081 -1 2 C-0.67 1.34 -0.34 0.68 0 0 Z M0 28 C1 30 1 30 1 30 Z " fill="#1C1C25" transform="translate(289,437)"/>
<path d="M0 0 C3.87581865 1.46488338 7.47045966 3.23833461 11.12109375 5.1953125 C11.69822617 5.50409332 12.27535858 5.81287415 12.86997986 6.13101196 C14.72738518 7.12612239 16.58253528 8.12534853 18.4375 9.125 C19.71109179 9.80893504 20.98469207 10.49285429 22.25830078 11.17675781 C29.68130222 15.17034404 37.06222162 19.22378153 44.3359375 23.484375 C47.17502414 25.09957385 50.06690707 26.56373621 53 28 C53.33 24.04 53.66 20.08 54 16 C56.96082018 21.92164036 57.15181433 25.47305215 56 32 C51.60088097 30.66348067 47.78449541 28.93129602 43.7734375 26.69140625 C42.90076736 26.20717697 42.90076736 26.20717697 42.01046753 25.71316528 C40.12918205 24.66787477 38.25197319 23.61551124 36.375 22.5625 C34.42582074 21.47447111 32.4759476 20.38769355 30.52600098 19.30104065 C29.22283245 18.57465292 27.92001605 17.84763309 26.61755371 17.11997986 C22.65734081 14.9105183 18.67893696 12.73991563 14.6796875 10.6015625 C13.75236816 10.10325928 12.82504883 9.60495605 11.86962891 9.09155273 C10.1595962 8.17501983 8.44586343 7.26534776 6.72802734 6.36352539 C5.97730957 5.9586792 5.2265918 5.55383301 4.453125 5.13671875 C3.80504883 4.79342529 3.15697266 4.45013184 2.48925781 4.09643555 C1 3 1 3 0 0 Z " fill="#191921" transform="translate(212,535)"/>
<path d="M0 0 C0.66 0 1.32 0 2 0 C2.33 0.99 2.66 1.98 3 3 C5.38375278 4.6329509 5.38375278 4.6329509 8.34765625 6.13671875 C9.42724609 6.71357422 10.50683594 7.29042969 11.61914062 7.88476562 C13.32360352 8.77711914 13.32360352 8.77711914 15.0625 9.6875 C16.20267578 10.29400391 17.34285156 10.90050781 18.51757812 11.52539062 C21.34064489 13.02551397 24.1681308 14.51657973 27 16 C27 16.66 27 17.32 27 18 C21.50480496 17.27402928 17.64927486 14.4991563 13.03515625 11.59375 C9.66600919 9.62261711 9.66600919 9.62261711 4 9 C3.34 16.59 2.68 24.18 2 32 C1.34 32 0.68 32 0 32 C0 21.44 0 10.88 0 0 Z " fill="#14141C" transform="translate(710,434)"/>
<path d="M0 0 C0.495 0.99 0.495 0.99 1 2 C3.31 1.34 5.62 0.68 8 0 C8 0.66 8 1.32 8 2 C7.27635254 2.3717334 6.55270508 2.7434668 5.80712891 3.12646484 C2.41153171 4.87297188 -0.98230151 6.62287084 -4.375 8.375 C-5.29138748 8.84803558 -5.29138748 8.84803558 -6.22628784 9.33062744 C-14.83794506 13.78113801 -23.38209778 18.33077547 -31.79248047 23.15380859 C-36.79776828 26 -36.79776828 26 -39 26 C-39 26.66 -39 27.32 -39 28 C-40.78953185 28.83790789 -42.58169695 29.67019396 -44.375 30.5 C-45.37273438 30.9640625 -46.37046875 31.428125 -47.3984375 31.90625 C-50 33 -50 33 -52 33 C-52 32.34 -52 31.68 -52 31 C-50.53125 30.20442708 -49.0625 29.40885417 -47.59375 28.61328125 C-46.63307617 28.09282227 -45.67240234 27.57236328 -44.68261719 27.03613281 C-42.54296053 25.87734361 -40.40298115 24.71915013 -38.26269531 23.56152344 C-32.56852425 20.48057908 -26.88012851 17.38982263 -21.203125 14.27734375 C-20.12095703 13.68590576 -19.03878906 13.09446777 -17.92382812 12.48510742 C-15.8372053 11.34436677 -13.75250677 10.20009786 -11.66992188 9.05200195 C-10.24776367 8.27602661 -10.24776367 8.27602661 -8.796875 7.484375 C-7.96510742 7.02772461 -7.13333984 6.57107422 -6.27636719 6.10058594 C-4.17199015 5.0831544 -2.28291852 4.46287779 0 4 C0 2.68 0 1.36 0 0 Z " fill="#191921" transform="translate(768,501)"/>
<path d="M0 0 C0.65121826 0.35916504 1.30243652 0.71833008 1.97338867 1.08837891 C9.03109195 4.96189745 16.15577186 8.68846823 23.3125 12.375 C32.3415621 17.04630405 41.22280735 21.87392605 50 27 C52.99193309 28.68141695 55.99314566 30.34543465 59 32 C56.22953981 33.13024568 55.16908929 33.0672135 52.34057617 31.94287109 C51.33486572 31.39195801 50.32915527 30.84104492 49.29296875 30.2734375 C48.15923828 29.65944092 47.02550781 29.04544434 45.85742188 28.4128418 C44.63391996 27.73391181 43.41061688 27.05462339 42.1875 26.375 C40.93473709 25.69026066 39.68147666 25.00643081 38.42773438 24.32348633 C27.59002744 18.40109841 16.83262383 12.32953591 6.12109375 6.18237305 C4.10713667 5.05972179 2.07075348 4.01336618 0 3 C0 2.01 0 1.02 0 0 Z " fill="#191921" transform="translate(715,467)"/>
<path d="M0 0 C0.99 0.99 0.99 0.99 2 2 C1.67 10.58 1.34 19.16 1 28 C-24.08 28 -49.16 28 -75 28 C-75 27.67 -75 27.34 -75 27 C-50.58 27 -26.16 27 -1 27 C-1.495 14.13 -1.495 14.13 -2 1 C-1.34 0.67 -0.68 0.34 0 0 Z " fill="#030205" transform="translate(395,483)"/>
<path d="M0 0 C2 2 2 2 2.22705078 4.70556641 C2.21657715 5.82624512 2.20610352 6.94692383 2.1953125 8.1015625 C2.18886719 9.31328125 2.18242187 10.525 2.17578125 11.7734375 C2.15902344 13.04445313 2.14226562 14.31546875 2.125 15.625 C2.11597656 16.90375 2.10695313 18.1825 2.09765625 19.5 C2.07402303 22.66685167 2.04107629 25.83333424 2 29 C1.01 29.33 0.02 29.66 -1 30 C-1.495 17.625 -1.495 17.625 -2 5 C-7.04489292 7.90913692 -7.04489292 7.90913692 -12.08081055 10.83374023 C-15.69398984 12.89182251 -18.7892948 14.54321738 -23 15 C-23 14.34 -23 13.68 -23 13 C-22.3387915 12.64172119 -21.67758301 12.28344238 -20.99633789 11.91430664 C-18.01740507 10.2988498 -15.03993691 8.68071216 -12.0625 7.0625 C-11.02158203 6.49853516 -9.98066406 5.93457031 -8.90820312 5.35351562 C-7.91884766 4.81533203 -6.92949219 4.27714844 -5.91015625 3.72265625 C-4.99371338 3.22515869 -4.07727051 2.72766113 -3.13305664 2.21508789 C-1.08450486 1.17264298 -1.08450486 1.17264298 0 0 Z " fill="#1C1C24" transform="translate(267,437)"/>
<path d="M0 0 C0.33 0 0.66 0 1 0 C1.0509432 6.95594129 1.08583535 13.91183399 1.10986328 20.86791992 C1.11988618 23.23154498 1.13350806 25.59515775 1.15087891 27.95874023 C1.17529069 31.36705571 1.18652054 34.77520643 1.1953125 38.18359375 C1.20563507 39.23083115 1.21595764 40.27806854 1.22659302 41.35704041 C1.22885138 56.31226746 1.22885138 56.31226746 -3.125 61.5625 C-3.74375 62.036875 -4.3625 62.51125 -5 63 C-4.79068848 62.27071289 -4.58137695 61.54142578 -4.36572266 60.79003906 C-1.35180801 48.85187507 -1.47516355 36.99406689 -1.375 24.75 C-1.33845124 21.51206803 -1.29793135 18.27425538 -1.25234985 15.03643799 C-1.22519974 13.03549284 -1.20381544 11.03445932 -1.18881226 9.03338623 C-1.17855011 8.13774963 -1.16828796 7.24211304 -1.15771484 6.31933594 C-1.15121918 5.53105408 -1.14472351 4.74277222 -1.13803101 3.93060303 C-1 2 -1 2 0 0 Z " fill="#1C1C24" transform="translate(661,529)"/>
<path d="M0 0 C0.66 0 1.32 0 2 0 C4.40339468 8.18288526 5.42070053 15.59807692 5.29296875 24.109375 C5.28872391 25.20219788 5.28447906 26.29502075 5.28010559 27.42095947 C5.26349769 30.86423849 5.22588002 34.30690203 5.1875 37.75 C5.17243002 40.10415813 5.1587457 42.45832556 5.14648438 44.8125 C5.11365314 50.54187177 5.06363645 56.27089189 5 62 C2.62011351 59.62011351 2.74437599 59.11766129 2.71289062 55.88012695 C2.69947632 55.02775955 2.68606201 54.17539215 2.67224121 53.29719543 C2.66696411 52.37025375 2.66168701 51.44331207 2.65625 50.48828125 C2.6343158 49.04765572 2.6343158 49.04765572 2.61193848 47.57792664 C2.56533407 44.48949428 2.53127354 41.40112328 2.5 38.3125 C2.36623659 25.39609899 2.176528 12.75926268 0 0 Z " fill="#1A1A21" transform="translate(657,409)"/>
<path d="M0 0 C0.66 0 1.32 0 2 0 C2.05058145 7.36894815 2.08568333 14.73785178 2.10986328 22.10693359 C2.11994011 24.61541415 2.13360179 27.12388292 2.15087891 29.63232422 C2.17505337 33.23147488 2.18646612 36.83047067 2.1953125 40.4296875 C2.20563507 41.55680145 2.21595764 42.68391541 2.22659302 43.84518433 C2.22674408 44.88611237 2.22689514 45.92704041 2.22705078 46.99951172 C2.231492 47.91884491 2.23593323 48.8381781 2.24050903 49.78536987 C2 52 2 52 0 54 C-1.58841279 13.64333132 -1.58841279 13.64333132 0 0 Z " fill="#111218" transform="translate(631,525)"/>
<path d="M0 0 C0.66 0.33 1.32 0.66 2 1 C2.33 19.15 2.66 37.3 3 56 C-2.37657297 50.62342703 -1.04085436 42.23947197 -1.125 34.9375 C-1.06165968 26.28098956 -0.51088528 17.63943504 0 9 C-0.66 8.67 -1.32 8.34 -2 8 C-1.34 8 -0.68 8 0 8 C0 5.36 0 2.72 0 0 Z " fill="#0C0C12" transform="translate(631,423)"/>
<path d="M0 0 C4.88193043 0.53965261 8.65215172 2.11616018 12.90234375 4.45703125 C13.5431337 4.80126633 14.18392365 5.1455014 14.84413147 5.50016785 C16.87969581 6.59627908 18.9085334 7.70423282 20.9375 8.8125 C22.29580866 9.54569178 23.65452931 10.27812085 25.01367188 11.00976562 C31.05112673 14.26827501 37.05169653 17.58097116 43 21 C43 21.66 43 22.32 43 23 C36.92064267 21.29531534 31.55266065 18.31004873 26 15.375 C24.98284912 14.84100586 23.96569824 14.30701172 22.91772461 13.75683594 C15.1777306 9.67287939 7.5397474 5.44283209 0 1 C0 0.67 0 0.34 0 0 Z " fill="#191921" transform="translate(744,456)"/>
<path d="M0 0 C2.0625 0.4375 2.0625 0.4375 4 1 C-4.40763742 6.02194254 -12.83355164 11.00739457 -21.4375 15.6875 C-22.06922119 16.038125 -22.70094238 16.38875 -23.35180664 16.75 C-24.86866961 17.56379374 -26.43131781 18.29121958 -28 19 C-28.66 18.67 -29.32 18.34 -30 18 C-27.42790014 15.05393841 -24.49183157 13.49764246 -21.0546875 11.6796875 C-19.89582031 11.06222656 -18.73695313 10.44476563 -17.54296875 9.80859375 C-16.32046446 9.16377432 -15.09780633 8.51924647 -13.875 7.875 C-11.47521299 6.60407886 -9.07731765 5.32968146 -6.6796875 4.0546875 C-5.61476074 3.49249512 -4.54983398 2.93030273 -3.45263672 2.35107422 C-1.12355007 1.21627402 -1.12355007 1.21627402 0 0 Z " fill="#191920" transform="translate(238,453)"/>
<path d="M0 0 C4.79488836 -0.50990417 7.44350688 1.11092675 11.5 3.5625 C12.73197367 4.29871758 13.96507629 5.03304884 15.19921875 5.765625 C15.82489746 6.13880859 16.45057617 6.51199219 17.09521484 6.89648438 C21.15653528 9.2493642 25.3669657 11.33231913 29.55078125 13.45703125 C32 15 32 15 33 18 C28.32827443 16.59276768 24.14248322 14.64249573 19.875 12.3125 C19.22845459 11.9630835 18.58190918 11.61366699 17.91577148 11.25366211 C5.20409758 4.34341465 5.20409758 4.34341465 0 1 C0 0.67 0 0.34 0 0 Z " fill="#181820" transform="translate(204,503)"/>
<path d="M0 0 C2.31 0 4.62 0 7 0 C7 0.66 7 1.32 7 2 C8.0372522 2.52170776 8.0372522 2.52170776 9.09545898 3.05395508 C12.21471968 4.6299943 15.32609897 6.2210046 18.4375 7.8125 C19.52611328 8.35970703 20.61472656 8.90691406 21.73632812 9.47070312 C22.77080078 10.00244141 23.80527344 10.53417969 24.87109375 11.08203125 C25.82943115 11.56905518 26.78776855 12.0560791 27.77514648 12.55786133 C30 14 30 14 31 17 C25.89306865 15.6560707 21.89034665 13.1936338 17.44921875 10.4453125 C14.41674281 8.65581314 11.23679914 7.37863667 8 6 C5.26113173 4.44393502 2.55513838 2.84500901 0 1 C0 0.67 0 0.34 0 0 Z " fill="#1D1D25" transform="translate(789,480)"/>
<path d="M0 0 C0.69931641 0.00064453 1.39863281 0.00128906 2.11914062 0.00195312 C3.18551758 0.00098633 3.18551758 0.00098633 4.2734375 0 C11.27606966 0.06834867 18.03219688 0.98205047 24.93164062 2.18945312 C24.93164062 2.51945313 24.93164062 2.84945312 24.93164062 3.18945312 C19.0045317 4.54860052 13.20538524 4.15007943 7.18164062 3.87695312 C6.12847656 3.84150391 5.0753125 3.80605469 3.99023438 3.76953125 C2.98605469 3.72634766 1.981875 3.68316406 0.94726562 3.63867188 C0.03235352 3.60088623 -0.88255859 3.56310059 -1.82519531 3.52416992 C-4.06835938 3.18945312 -4.06835938 3.18945312 -6.06835938 1.18945312 C-4.37424258 -0.50466367 -2.26194359 0.02475759 0 0 Z " fill="#273445" transform="translate(500.068359375,582.810546875)"/>
<path d="M0 0 C0.99 0.33 1.98 0.66 3 1 C3 9.58 3 18.16 3 27 C2.01 27 1.02 27 0 27 C0 18.09 0 9.18 0 0 Z " fill="#202129" transform="translate(246,395)"/>
<path d="M0 0 C-0.66 0 -1.32 0 -2 0 C-2 0.66 -2 1.32 -2 2 C-4.28929053 3.17154293 -6.58118362 4.33738074 -8.875 5.5 C-9.52597656 5.83386719 -10.17695313 6.16773438 -10.84765625 6.51171875 C-15.7734375 9 -15.7734375 9 -18 9 C-18 9.66 -18 10.32 -18 11 C-19.45381897 11.69699552 -20.91322953 12.38233866 -22.375 13.0625 C-23.18710938 13.44535156 -23.99921875 13.82820313 -24.8359375 14.22265625 C-25.55007812 14.47917969 -26.26421875 14.73570312 -27 15 C-27.66 14.67 -28.32 14.34 -29 14 C-25.16647633 9.76133275 -20.01465322 7.46559459 -15.0625 4.75 C-14.06025391 4.1828125 -13.05800781 3.615625 -12.02539062 3.03125 C-11.05923828 2.50015625 -10.09308594 1.9690625 -9.09765625 1.421875 C-7.77519897 0.68855957 -7.77519897 0.68855957 -6.42602539 -0.05957031 C-3.73824345 -1.10146787 -2.64471264 -1.02455254 0 0 Z " fill="#191920" transform="translate(206,474)"/>
<path d="M0 0 C6.90339217 1.04077859 13.25138947 4.13031276 19 8 C20.64435547 10.810253 20.52951863 12.84751698 20 16 C19.93039062 16.680625 19.86078125 17.36125 19.7890625 18.0625 C19.59548308 19.71793781 19.30715693 21.3618297 19 23 C18.67 23 18.34 23 18 23 C17.505 16.565 17.505 16.565 17 10 C14.525 9.01 14.525 9.01 12 8 C10.06849488 7.0289701 8.15179672 6.02799823 6.25 5 C5.28578125 4.484375 4.3215625 3.96875 3.328125 3.4375 C1 2 1 2 0 0 Z " fill="#16161F" transform="translate(249,527)"/>
<path d="M0 0 C1.98 0 3.96 0 6 0 C6 0.66 6 1.32 6 2 C3.98828125 3.33203125 3.98828125 3.33203125 1.3125 4.8125 C-5.11082792 8.55944129 -8.95517513 12.10908057 -12 19 C-12.66 19 -13.32 19 -14 19 C-13.3871681 13.79092889 -11.26583213 9.9320265 -7.25 6.5078125 C-2.49364407 3 -2.49364407 3 0 3 C0 2.01 0 1.02 0 0 Z " fill="#292A36" transform="translate(648,502)"/>
<path d="M0 0 C1.65 0 3.3 0 5 0 C4.34 0.66 3.68 1.32 3 2 C2.72123233 4.91487922 2.72123233 4.91487922 2.8046875 8.3203125 C2.81113281 9.57714844 2.81757812 10.83398438 2.82421875 12.12890625 C2.84097656 13.44761719 2.85773437 14.76632812 2.875 16.125 C2.88503017 17.46483721 2.89415596 18.80468152 2.90234375 20.14453125 C2.92597925 23.42986573 2.95892766 26.71484465 3 30 C2.34 30 1.68 30 1 30 C0.1367399 26.28111134 -0.11721556 22.85703512 -0.09765625 19.04296875 C-0.09443359 17.93115234 -0.09121094 16.81933594 -0.08789062 15.67382812 C-0.07951172 14.52333984 -0.07113281 13.37285156 -0.0625 12.1875 C-0.05798828 11.01767578 -0.05347656 9.84785156 -0.04882812 8.64257812 C-0.0370693 5.76166642 -0.02063426 2.88085956 0 0 Z " fill="#0A090F" transform="translate(710,535)"/>
<path d="M0 0 C0.66 0.33 1.32 0.66 2 1 C-0.28798996 3.51186012 -2.62702041 5.06562036 -5.59765625 6.69921875 C-6.48130859 7.18583984 -7.36496094 7.67246094 -8.27539062 8.17382812 C-9.19513672 8.67333984 -10.11488281 9.17285156 -11.0625 9.6875 C-11.98611328 10.19861328 -12.90972656 10.70972656 -13.86132812 11.23632812 C-20.74045602 15 -20.74045602 15 -23 15 C-23 14.34 -23 13.68 -23 13 C-22.3387915 12.64172119 -21.67758301 12.28344238 -20.99633789 11.91430664 C-18.01740507 10.2988498 -15.03993691 8.68071216 -12.0625 7.0625 C-11.02158203 6.49853516 -9.98066406 5.93457031 -8.90820312 5.35351562 C-7.91884766 4.81533203 -6.92949219 4.27714844 -5.91015625 3.72265625 C-4.99371338 3.22515869 -4.07727051 2.72766113 -3.13305664 2.21508789 C-1.08450486 1.17264298 -1.08450486 1.17264298 0 0 Z " fill="#17171E" transform="translate(750,542)"/>
<path d="M0 0 C0.99 0 1.98 0 3 0 C4.14479306 1.17846345 5.2862001 2.36049523 6.40625 3.5625 C8.94749116 5.85459987 11.89694617 7.30607931 14.9140625 8.88671875 C17 10 17 10 20 12 C19.67 12.99 19.34 13.98 19 15 C17.453125 13.8553125 17.453125 13.8553125 15.875 12.6875 C13.5580097 11.01385912 11.56881351 9.80640606 8.9375 8.625 C5.02643364 6.46143137 2.70460431 3.50064033 0 0 Z " fill="#16161D" transform="translate(662,473)"/>
<path d="M0 0 C0.66 0 1.32 0 2 0 C0.82256302 3.53231093 0.21013992 3.74555638 -2.9296875 5.48046875 C-3.72503906 5.92197266 -4.52039063 6.36347656 -5.33984375 6.81835938 C-6.59474609 7.49608398 -6.59474609 7.49608398 -7.875 8.1875 C-8.70386719 8.65091797 -9.53273437 9.11433594 -10.38671875 9.59179688 C-16.60079161 13 -16.60079161 13 -20 13 C-20 12.34 -20 11.68 -20 11 C-19.14450562 10.55346069 -19.14450562 10.55346069 -18.27172852 10.09790039 C-15.70097638 8.7546883 -13.13172348 7.40863353 -10.5625 6.0625 C-9.66466797 5.59392578 -8.76683594 5.12535156 -7.84179688 4.64257812 C-6.98779297 4.19462891 -6.13378906 3.74667969 -5.25390625 3.28515625 C-4.06776733 2.66459351 -4.06776733 2.66459351 -2.85766602 2.03149414 C-1.04434725 1.13599249 -1.04434725 1.13599249 0 0 Z " fill="#17171F" transform="translate(254,472)"/>
<path d="M0 0 C5.96094661 0.29804733 9.71972158 3.10303009 14 7 C15.7578125 9.05859375 15.7578125 9.05859375 17 11 C16.6875 13.25 16.6875 13.25 16 15 C15.525625 14.13375 15.05125 13.2675 14.5625 12.375 C12.1212262 8.66039994 8.86309935 6.68516874 5.12109375 4.39453125 C3.13422289 3.08824599 1.60749635 1.7410264 0 0 Z " fill="#1D1D24" transform="translate(639,393)"/>
<path d="M0 0 C0.53625 0.226875 1.0725 0.45375 1.625 0.6875 C0.4803125 1.2753125 0.4803125 1.2753125 -0.6875 1.875 C-3.86338447 4.01687557 -4.89893394 5.14494146 -6.375 8.6875 C-6.90660527 12.34680228 -7.18750464 15.99578104 -7.375 19.6875 C-7.705 19.6875 -8.035 19.6875 -8.375 19.6875 C-8.375 14.0775 -8.375 8.4675 -8.375 2.6875 C-2.375 -0.3125 -2.375 -0.3125 0 0 Z " fill="#121218" transform="translate(173.375,490.3125)"/>
<path d="M0 0 C4.50727647 0.60266785 7.8587963 2.36599794 11.8125 4.5625 C12.7087207 5.0565332 12.7087207 5.0565332 13.62304688 5.56054688 C15.08533998 6.36773267 16.5431399 7.18304917 18 8 C18 8.66 18 9.32 18 10 C13.40297887 9.44593342 10.01892099 7.44322498 6.1875 5 C5.59001953 4.63132812 4.99253906 4.26265625 4.37695312 3.8828125 C2.89634966 2.9555317 1.4450798 1.98172332 0 1 C0 0.67 0 0.34 0 0 Z " fill="#18181F" transform="translate(719,442)"/>
<path d="M0 0 C1.65 0 3.3 0 5 0 C5 0.99 5 1.98 5 3 C4.34 3 3.68 3 3 3 C3 7.62 3 12.24 3 17 C2.67 17 2.34 17 2 17 C1.86722656 16.08476562 1.73445313 15.16953125 1.59765625 14.2265625 C1.42105469 13.03804688 1.24445313 11.84953125 1.0625 10.625 C0.88847656 9.44164062 0.71445312 8.25828125 0.53515625 7.0390625 C0.16537214 4.09297619 0.16537214 4.09297619 -1 2 C-0.67 1.34 -0.34 0.68 0 0 Z " fill="#181820" transform="translate(289,437)"/>
<path d="M0 0 C0.51949219 0.39832031 1.03898438 0.79664063 1.57421875 1.20703125 C4.6356591 3.5328205 7.5991255 5.76971039 10.9375 7.6875 C13 9 13 9 14 12 C9.07534897 10.46104655 4.6817276 7.59570593 1 4 C0.265625 1.8046875 0.265625 1.8046875 0 0 Z " fill="#1B1B23" transform="translate(639,488)"/>
<path d="M0 0 C3.76314135 0.60914159 6.83503926 1.6879685 10.25 3.375 C11.55710937 4.00535156 11.55710937 4.00535156 12.890625 4.6484375 C15 6 15 6 16 9 C10.0942118 7.44584521 5.02261107 4.40465533 0 1 C0 0.67 0 0.34 0 0 Z " fill="#16161D" transform="translate(804,488)"/>
<path d="M0 0 C0.33 0.66 0.66 1.32 1 2 C3.31 1.34 5.62 0.68 8 0 C8 0.66 8 1.32 8 2 C1.07 5.465 1.07 5.465 -6 9 C-6.66 8.34 -7.32 7.68 -8 7 C-2.25 4 -2.25 4 0 4 C0 2.68 0 1.36 0 0 Z " fill="#1E1E27" transform="translate(768,501)"/>
<path d="M0 0 C2.3431213 0.25561323 4.67843403 0.59270772 7 1 C7.33 1.66 7.66 2.32 8 3 C6.73581754 3.69965443 5.46334598 4.38434763 4.1875 5.0625 C3.47980469 5.44535156 2.77210938 5.82820313 2.04296875 6.22265625 C0 7 0 7 -3 6 C-1.68 4.68 -0.36 3.36 1 2 C0.67 1.34 0.34 0.68 0 0 Z " fill="#1D1D24" transform="translate(822,498)"/>
<path d="M0 0 C4.60825418 1.61911633 6.96275595 3.0292363 9.25 7.375 C10.09784943 10.34247301 9.83869478 12.06456827 9 15 C8.67 15 8.34 15 8 15 C7.79375 13.783125 7.5875 12.56625 7.375 11.3125 C6.2104016 6.4742787 3.91422251 4.89312099 0 2 C0 1.34 0 0.68 0 0 Z " fill="#21222A" transform="translate(622,413)"/>
<path d="M0 0 C1.98 0 3.96 0 6 0 C6 0.66 6 1.32 6 2 C3.91796875 3.5078125 3.91796875 3.5078125 1.1875 5.125 C0.29417969 5.66382813 -0.59914063 6.20265625 -1.51953125 6.7578125 C-4 8 -4 8 -7 8 C-5.37660195 6.29115995 -3.70680947 4.62553283 -2 3 C-1.34 3 -0.68 3 0 3 C0 2.01 0 1.02 0 0 Z " fill="#191921" transform="translate(648,502)"/>
<path d="M0 0 C0.66 0.66 1.32 1.32 2 2 C1.67 2.66 1.34 3.32 1 4 C0.84733388 5.73868744 0.75067404 7.48247501 0.68359375 9.2265625 C0.64169922 10.2578125 0.59980469 11.2890625 0.55664062 12.3515625 C0.49766602 13.97191406 0.49766602 13.97191406 0.4375 15.625 C0.39431641 16.71296875 0.35113281 17.8009375 0.30664062 18.921875 C0.2003547 21.6144517 0.09831943 24.30712253 0 27 C-0.33 27 -0.66 27 -1 27 C-1.33 18.42 -1.66 9.84 -2 1 C-1.34 0.67 -0.68 0.34 0 0 Z " fill="#111016" transform="translate(395,483)"/>
<path d="M0 0 C0.66 0.66 1.32 1.32 2 2 C1.79605039 8.32243793 1.75222158 9.24777842 -3 14 C-2.01 9.38 -1.02 4.76 0 0 Z " fill="#121218" transform="translate(659,578)"/>
<path d="M0 0 C2.96082018 5.92164036 3.15181433 9.47305215 2 16 C1.34 16 0.68 16 0 16 C0 10.72 0 5.44 0 0 Z " fill="#13141A" transform="translate(266,551)"/>
<path d="M0 0 C0.66 0 1.32 0 2 0 C4.32086397 5.324335 3.91457003 9.43842552 3 15 C2.67 15 2.34 15 2 15 C1.34 10.05 0.68 5.1 0 0 Z " fill="#141319" transform="translate(657,409)"/>
<path d="M0 0 C0.66 0.33 1.32 0.66 2 1 C-0.55022856 3.97526665 -3.40293526 5.50122302 -7 7 C-7.99 6.67 -8.98 6.34 -10 6 C-8.3811004 4.96951963 -6.75467511 3.95085322 -5.125 2.9375 C-4.22007812 2.36902344 -3.31515625 1.80054688 -2.3828125 1.21484375 C-1.20332031 0.61349609 -1.20332031 0.61349609 0 0 Z " fill="#15151C" transform="translate(786,522)"/>
<path d="M0 0 C0.66 0 1.32 0 2 0 C2.91297308 4.97063121 2.91297308 9.02936879 2 14 C1.67 14 1.34 14 1 14 C0.04738513 9.23692563 -0.08333357 4.8333472 0 0 Z " fill="#0E0E12" transform="translate(266,536)"/>
<path d="M0 0 C0 0.66 0 1.32 0 2 C-6.45 6.09326923 -6.45 6.09326923 -9.234375 5.62109375 C-9.81703125 5.41613281 -10.3996875 5.21117187 -11 5 C-9.54462432 4.16151196 -8.08559627 3.32936066 -6.625 2.5 C-5.81289063 2.0359375 -5.00078125 1.571875 -4.1640625 1.09375 C-2 0 -2 0 0 0 Z " fill="#17171E" transform="translate(774,530)"/>
<path d="M0 0 C0.66 0 1.32 0 2 0 C2.33 0.99 2.66 1.98 3 3 C3.66 3.33 4.32 3.66 5 4 C5.66 4.33 6.32 4.66 7 5 C7.33 5.99 7.66 6.98 8 8 C1.125 6.125 1.125 6.125 0 5 C-0.04063832 3.33382885 -0.042721 1.66611905 0 0 Z " fill="#212229" transform="translate(710,434)"/>
<path d="M0 0 C0.33 0 0.66 0 1 0 C1.33 3.96 1.66 7.92 2 12 C-1 9 -1 9 -1.328125 6.9921875 C-1.11111111 1.11111111 -1.11111111 1.11111111 0 0 Z " fill="#15151B" transform="translate(632,467)"/>
<path d="M0 0 C0 0.66 0 1.32 0 2 C-3.85756507 4.15305957 -6.55129785 5.39253254 -11 5 C-7.72709962 2.33319229 -4.35126896 0 0 0 Z " fill="#16161C" transform="translate(647,602)"/>
<path d="M0 0 C0 0.66 0 1.32 0 2 C-6.45 6.09326923 -6.45 6.09326923 -9.234375 5.62109375 C-9.81703125 5.41613281 -10.3996875 5.21117187 -11 5 C-9.54462432 4.16151196 -8.08559627 3.32936066 -6.625 2.5 C-5.81289063 2.0359375 -5.00078125 1.571875 -4.1640625 1.09375 C-2 0 -2 0 0 0 Z " fill="#191921" transform="translate(726,557)"/>
<path d="M0 0 C3.34373475 0.55728913 6.03312999 1.35173889 9 3 C8.67 3.99 8.34 4.98 8 6 C5.36 4.68 2.72 3.36 0 2 C0 1.34 0 0.68 0 0 Z " fill="#17171E" transform="translate(238,521)"/>
<path d="M0 0 C-1 3 -1 3 -3.3125 4.75 C-6.32190521 6.14972335 -6.98041673 5.95287489 -10 5 C-8.71186658 4.16121545 -7.41936744 3.32913217 -6.125 2.5 C-5.40570312 2.0359375 -4.68640625 1.571875 -3.9453125 1.09375 C-2 0 -2 0 0 0 Z " fill="#14141A" transform="translate(818,505)"/>
<path d="M0 0 C3 0 3 0 5.5625 2.375 C6.366875 3.24125 7.17125 4.1075 8 5 C8.66 5.66 9.32 6.32 10 7 C9.01 7.33 8.02 7.66 7 8 C5.83035398 6.8572081 4.66435444 5.71068285 3.5 4.5625 C2.8503125 3.92441406 2.200625 3.28632813 1.53125 2.62890625 C0 1 0 1 0 0 Z " fill="#1C1C24" transform="translate(662,473)"/>
<path d="M0 0 C1.31823302 0.59155331 2.62947051 1.19871463 3.9375 1.8125 C5.03384766 2.31716797 5.03384766 2.31716797 6.15234375 2.83203125 C8 4 8 4 9 7 C5.9168649 5.80100302 2.93720508 4.52299523 0 3 C0 2.01 0 1.02 0 0 Z " fill="#1D1C25" transform="translate(715,467)"/>
<path d="M0 0 C2.71928517 0.37507382 3.84218661 0.84218661 5.8125 2.8125 C7 5 7 5 6.6875 7.25 C6.460625 7.8275 6.23375 8.405 6 9 C4 6 2 3 0 0 Z " fill="#14141A" transform="translate(649,399)"/>
<path d="M0 0 C5.75 1.75 5.75 1.75 8 4 C6.3125 4.75 6.3125 4.75 4 5 C1.25 3.0625 1.25 3.0625 -1 1 C-0.67 0.67 -0.34 0.34 0 0 Z " fill="#202029" transform="translate(260,532)"/>
<path d="M0 0 C0 0.66 0 1.32 0 2 C-4.15267176 5.11450382 -4.15267176 5.11450382 -7.3125 4.6875 C-7.869375 4.460625 -8.42625 4.23375 -9 4 C-2.25 0 -2.25 0 0 0 Z " fill="#16161D" transform="translate(799,516)"/>
<path d="M0 0 C0.33 1.32 0.66 2.64 1 4 C-0.4375 6.25 -0.4375 6.25 -2 8 C-2.99 7.67 -3.98 7.34 -5 7 C-3.35 4.69 -1.7 2.38 0 0 Z " fill="#18181F" transform="translate(685,506)"/>
<path d="M0 0 C-1.28913487 0.67154933 -2.58140204 1.33708859 -3.875 2 C-4.59429687 2.37125 -5.31359375 2.7425 -6.0546875 3.125 C-8 4 -8 4 -10 4 C-10 3.34 -10 2.68 -10 2 C-4.10714286 -1.34821429 -4.10714286 -1.34821429 0 0 Z " fill="#131319" transform="translate(254,448)"/>
<path d="M0 0 C0.33 0.99 0.66 1.98 1 3 C-0.32 4.32 -1.64 5.64 -3 7 C-3.99 6.67 -4.98 6.34 -6 6 C-4.02 4.02 -2.04 2.04 0 0 Z " fill="#131319" transform="translate(654,594)"/>
<path d="M0 0 C-0.33 0.99 -0.66 1.98 -1 3 C-1.66 3 -2.32 3 -3 3 C-3.33 3.99 -3.66 4.98 -4 6 C-4.99 6.33 -5.98 6.66 -7 7 C-3.86206897 0 -3.86206897 0 0 0 Z " fill="#16161C" transform="translate(669,521)"/>
<path d="M0 0 C0 3.20395416 -0.74335022 5.09399739 -2 8 C-2.66 8 -3.32 8 -4 8 C-3.50168276 4.31245243 -2.89932357 2.39509338 0 0 Z " fill="#15151C" transform="translate(638,513)"/>
<path d="M0 0 C0.33 0 0.66 0 1 0 C1 2.64 1 5.28 1 8 C0.67 8 0.34 8 0 8 C0 5.36 0 2.72 0 0 Z " fill="#3F3F4D" transform="translate(288,524)"/>
<path d="M0 0 C2.31 0 4.62 0 7 0 C7 0.33 7 0.66 7 1 C4.69 1 2.38 1 0 1 C0 0.67 0 0.34 0 0 Z " fill="#454857" transform="translate(312,606)"/>
<path d="M0 0 C0.33 0 0.66 0 1 0 C1 1.98 1 3.96 1 6 C0.67 6 0.34 6 0 6 C0 4.02 0 2.04 0 0 Z " fill="#3E3E4C" transform="translate(288,494)"/>
<path d="M0 0 C1.32 0.33 2.64 0.66 4 1 C3.01 1.495 3.01 1.495 2 2 C1.34 1.34 0.68 0.68 0 0 Z " fill="#4F5F75" transform="translate(414,606)"/>
<path d="M0 0 C1.65 0 3.3 0 5 0 C5 0.33 5 0.66 5 1 C3.35 1 1.7 1 0 1 C0 0.67 0 0.34 0 0 Z " fill="#464757" transform="translate(339,606)"/>
<path d="M0 0 C0.33 0 0.66 0 1 0 C1 1.65 1 3.3 1 5 C0.67 5 0.34 5 0 5 C0 3.35 0 1.7 0 0 Z " fill="#3D3F4F" transform="translate(663,562)"/>
<path d="M0 0 C0.33 0 0.66 0 1 0 C1 1.65 1 3.3 1 5 C0.67 5 0.34 5 0 5 C0 3.35 0 1.7 0 0 Z " fill="#3F3E4C" transform="translate(288,486)"/>
<path d="M0 0 C4 1 4 1 4 1 Z " fill="#474756" transform="translate(305,606)"/>
<path d="M0 0 C4 1 4 1 4 1 Z " fill="#464856" transform="translate(297,606)"/>
<path d="M0 0 C4 1 4 1 4 1 Z " fill="#474755" transform="translate(281,606)"/>
<path d="M0 0 C0 3 0 3 0 3 Z " fill="#464756" transform="translate(265,436)"/>
<path d="M0 0 C0.66 0 1.32 0 2 0 C1.67 0.66 1.34 1.32 1 2 C0.67 1.34 0.34 0.68 0 0 Z " fill="#474757" transform="translate(331,606)"/>
<path d="" fill="#474956" transform="translate(0,0)"/>
<path d="" fill="#3E3E4D" transform="translate(0,0)"/>
<path d="" fill="#3E3E4E" transform="translate(0,0)"/>
<path d="M0 0 C0.33 0.66 0.66 1.32 1 2 C0.34 1.67 -0.32 1.34 -1 1 C-0.67 0.67 -0.34 0.34 0 0 Z " fill="#404150" transform="translate(650,500)"/>
<path d="M0 0 C0.66 0.66 1.32 1.32 2 2 C1.34 2 0.68 2 0 2 C0 1.34 0 0.68 0 0 Z " fill="#434452" transform="translate(626,419)"/>
<path d="M0 0 C2 1 2 1 2 1 Z " fill="#25A3E4" transform="translate(572,631)"/>
<path d="M0 0 C2 1 2 1 2 1 Z " fill="#4A4C5C" transform="translate(371,606)"/>
<path d="M0 0 C2 1 2 1 2 1 Z " fill="#494B5C" transform="translate(363,606)"/>
<path d="M0 0 C2 1 2 1 2 1 Z " fill="#494B5B" transform="translate(355,606)"/>
<path d="M0 0 C2 1 2 1 2 1 Z " fill="#474858" transform="translate(350,606)"/>
<path d="M0 0 C2 1 2 1 2 1 Z " fill="#464958" transform="translate(345,606)"/>
<path d="M0 0 C2 1 2 1 2 1 Z " fill="#474655" transform="translate(326,606)"/>
<path d="M0 0 C2 1 2 1 2 1 Z " fill="#464757" transform="translate(302,606)"/>
<path d="M0 0 C2 1 2 1 2 1 Z " fill="#484757" transform="translate(294,606)"/>
<path d="M0 0 C2 1 2 1 2 1 Z " fill="#474857" transform="translate(291,606)"/>
<path d="M0 0 C2 1 2 1 2 1 Z " fill="#464755" transform="translate(286,606)"/>
<path d="M0 0 C2 1 2 1 2 1 Z " fill="#474756" transform="translate(270,606)"/>
<path d="M0 0 C2 1 2 1 2 1 Z " fill="#484956" transform="translate(265,606)"/>
<path d="" fill="#404652" transform="translate(0,0)"/>
<path d="" fill="#476C8A" transform="translate(0,0)"/>
<path d="" fill="#3F4050" transform="translate(0,0)"/>
<path d="M0 0 C2 1 2 1 2 1 Z " fill="#444353" transform="translate(729,557)"/>
<path d="" fill="#424252" transform="translate(0,0)"/>
<path d="" fill="#474C5F" transform="translate(0,0)"/>
<path d="" fill="#3D3D4C" transform="translate(0,0)"/>
<path d="" fill="#444756" transform="translate(0,0)"/>
<path d="" fill="#444655" transform="translate(0,0)"/>
<path d="" fill="#3D3F4B" transform="translate(0,0)"/>
<path d="" fill="#3E3D4C" transform="translate(0,0)"/>
<path d="M0 0 C2 1 2 1 2 1 Z " fill="#454656" transform="translate(770,501)"/>
<path d="" fill="#41404F" transform="translate(0,0)"/>
<path d="M0 0 C2 1 2 1 2 1 Z " fill="#40404C" transform="translate(809,488)"/>
<path d="" fill="#494A57" transform="translate(0,0)"/>
<path d="M0 0 C2 1 2 1 2 1 Z " fill="#434251" transform="translate(796,481)"/>
<path d="M0 0 C2 1 2 1 2 1 Z " fill="#3D3E4B" transform="translate(266,469)"/>
<path d="M0 0 C2 1 2 1 2 1 Z " fill="#40414C" transform="translate(750,456)"/>
<path d="" fill="#414250" transform="translate(0,0)"/>
<path d="M0 0 C2 1 2 1 2 1 Z " fill="#403F4D" transform="translate(244,448)"/>
<path d="" fill="#5C5C5C" transform="translate(0,0)"/>
<path d="" fill="#25A5E7" transform="translate(0,0)"/>
<path d="" fill="#22A9ED" transform="translate(0,0)"/>
<path d="" fill="#1FA8ED" transform="translate(0,0)"/>
<path d="" fill="#506D87" transform="translate(0,0)"/>
<path d="" fill="#505B6E" transform="translate(0,0)"/>
<path d="" fill="#4E5767" transform="translate(0,0)"/>
<path d="" fill="#484C58" transform="translate(0,0)"/>
<path d="" fill="#4E637C" transform="translate(0,0)"/>
<path d="" fill="#505D72" transform="translate(0,0)"/>
<path d="" fill="#505C6C" transform="translate(0,0)"/>
<path d="" fill="#4E5465" transform="translate(0,0)"/>
<path d="" fill="#4C5264" transform="translate(0,0)"/>
<path d="" fill="#4B5060" transform="translate(0,0)"/>
<path d="" fill="#4B4F60" transform="translate(0,0)"/>
<path d="" fill="#4C4F5F" transform="translate(0,0)"/>
<path d="" fill="#4A4C5D" transform="translate(0,0)"/>
<path d="" fill="#484B5C" transform="translate(0,0)"/>
<path d="" fill="#474958" transform="translate(0,0)"/>
<path d="" fill="#464959" transform="translate(0,0)"/>
<path d="" fill="#474857" transform="translate(0,0)"/>
<path d="" fill="#474A54" transform="translate(0,0)"/>
<path d="" fill="#484857" transform="translate(0,0)"/>
<path d="" fill="#464956" transform="translate(0,0)"/>
<path d="" fill="#474958" transform="translate(0,0)"/>
<path d="" fill="#474757" transform="translate(0,0)"/>
<path d="" fill="#484957" transform="translate(0,0)"/>
<path d="" fill="#4A4956" transform="translate(0,0)"/>
<path d="" fill="#474957" transform="translate(0,0)"/>
<path d="" fill="#4C4E5A" transform="translate(0,0)"/>
<path d="" fill="#536881" transform="translate(0,0)"/>
<path d="" fill="#3D93CA" transform="translate(0,0)"/>
<path d="" fill="#505F76" transform="translate(0,0)"/>
<path d="" fill="#54627B" transform="translate(0,0)"/>
<path d="" fill="#42789F" transform="translate(0,0)"/>
<path d="" fill="#505C6E" transform="translate(0,0)"/>
<path d="" fill="#424252" transform="translate(0,0)"/>
<path d="" fill="#486A87" transform="translate(0,0)"/>
<path d="" fill="#424350" transform="translate(0,0)"/>
<path d="" fill="#495F74" transform="translate(0,0)"/>
<path d="" fill="#444653" transform="translate(0,0)"/>
<path d="" fill="#424452" transform="translate(0,0)"/>
<path d="" fill="#3E4150" transform="translate(0,0)"/>
<path d="" fill="#3F434F" transform="translate(0,0)"/>
<path d="" fill="#40414F" transform="translate(0,0)"/>
<path d="" fill="#42434E" transform="translate(0,0)"/>
<path d="" fill="#3E4250" transform="translate(0,0)"/>
<path d="" fill="#3F3F4F" transform="translate(0,0)"/>
<path d="" fill="#42434F" transform="translate(0,0)"/>
<path d="" fill="#3C4050" transform="translate(0,0)"/>
<path d="" fill="#424452" transform="translate(0,0)"/>
<path d="" fill="#474D5A" transform="translate(0,0)"/>
<path d="" fill="#403E4F" transform="translate(0,0)"/>
<path d="" fill="#3E3E4F" transform="translate(0,0)"/>
<path d="" fill="#3F3F50" transform="translate(0,0)"/>
<path d="" fill="#434450" transform="translate(0,0)"/>
<path d="" fill="#424450" transform="translate(0,0)"/>
<path d="" fill="#414350" transform="translate(0,0)"/>
<path d="" fill="#46495A" transform="translate(0,0)"/>
<path d="" fill="#444251" transform="translate(0,0)"/>
<path d="" fill="#444251" transform="translate(0,0)"/>
<path d="" fill="#414252" transform="translate(0,0)"/>
<path d="" fill="#3F414F" transform="translate(0,0)"/>
<path d="" fill="#424250" transform="translate(0,0)"/>
<path d="" fill="#403F4D" transform="translate(0,0)"/>
<path d="" fill="#454758" transform="translate(0,0)"/>
<path d="" fill="#454451" transform="translate(0,0)"/>
<path d="" fill="#41414F" transform="translate(0,0)"/>
<path d="" fill="#3D3F4B" transform="translate(0,0)"/>
<path d="" fill="#454751" transform="translate(0,0)"/>
<path d="" fill="#434251" transform="translate(0,0)"/>
<path d="" fill="#3B3D4C" transform="translate(0,0)"/>
<path d="" fill="#413F4D" transform="translate(0,0)"/>
<path d="" fill="#3F404F" transform="translate(0,0)"/>
<path d="" fill="#464954" transform="translate(0,0)"/>
<path d="" fill="#3B3C4C" transform="translate(0,0)"/>
<path d="" fill="#464658" transform="translate(0,0)"/>
<path d="" fill="#3F3F4D" transform="translate(0,0)"/>
<path d="" fill="#3E3E4E" transform="translate(0,0)"/>
<path d="" fill="#3E3F4E" transform="translate(0,0)"/>
<path d="" fill="#454655" transform="translate(0,0)"/>
<path d="" fill="#3F3F4F" transform="translate(0,0)"/>
<path d="" fill="#444755" transform="translate(0,0)"/>
<path d="" fill="#3F4250" transform="translate(0,0)"/>
<path d="" fill="#3F414D" transform="translate(0,0)"/>
<path d="" fill="#404150" transform="translate(0,0)"/>
<path d="" fill="#413F4E" transform="translate(0,0)"/>
<path d="" fill="#444655" transform="translate(0,0)"/>
<path d="" fill="#3E404D" transform="translate(0,0)"/>
<path d="" fill="#454653" transform="translate(0,0)"/>
<path d="" fill="#454655" transform="translate(0,0)"/>
<path d="" fill="#454552" transform="translate(0,0)"/>
<path d="" fill="#403F4E" transform="translate(0,0)"/>
<path d="" fill="#3F414B" transform="translate(0,0)"/>
<path d="" fill="#444455" transform="translate(0,0)"/>
<path d="" fill="#434451" transform="translate(0,0)"/>
<path d="" fill="#484B56" transform="translate(0,0)"/>
<path d="" fill="#41414F" transform="translate(0,0)"/>
<path d="" fill="#444551" transform="translate(0,0)"/>
<path d="" fill="#454552" transform="translate(0,0)"/>
<path d="" fill="#3E3E4C" transform="translate(0,0)"/>
<path d="" fill="#3E3E4F" transform="translate(0,0)"/>
<path d="" fill="#42434F" transform="translate(0,0)"/>
<path d="" fill="#444756" transform="translate(0,0)"/>
<path d="" fill="#434551" transform="translate(0,0)"/>
<path d="" fill="#434551" transform="translate(0,0)"/>
<path d="" fill="#444652" transform="translate(0,0)"/>
<path d="" fill="#3F3D4D" transform="translate(0,0)"/>
<path d="" fill="#454758" transform="translate(0,0)"/>
<path d="" fill="#454654" transform="translate(0,0)"/>
<path d="" fill="#434351" transform="translate(0,0)"/>
<path d="" fill="#42424F" transform="translate(0,0)"/>
<path d="" fill="#434350" transform="translate(0,0)"/>
<path d="" fill="#464857" transform="translate(0,0)"/>
<path d="" fill="#414150" transform="translate(0,0)"/>
<path d="" fill="#413F4E" transform="translate(0,0)"/>
<path d="" fill="#42414D" transform="translate(0,0)"/>
<path d="" fill="#464A5A" transform="translate(0,0)"/>
<path d="" fill="#3F424D" transform="translate(0,0)"/>
<path d="" fill="#414350" transform="translate(0,0)"/>
<path d="" fill="#494F5D" transform="translate(0,0)"/>
<path d="" fill="#3D3D4C" transform="translate(0,0)"/>
<path d="" fill="#404151" transform="translate(0,0)"/>
<path d="" fill="#3E3D4C" transform="translate(0,0)"/>
<path d="" fill="#4B5467" transform="translate(0,0)"/>
<path d="" fill="#434450" transform="translate(0,0)"/>
<path d="" fill="#444550" transform="translate(0,0)"/>
<path d="" fill="#434350" transform="translate(0,0)"/>
<path d="" fill="#454655" transform="translate(0,0)"/>
<path d="" fill="#4E5A70" transform="translate(0,0)"/>
<path d="" fill="#414251" transform="translate(0,0)"/>
<path d="" fill="#424352" transform="translate(0,0)"/>
<path d="" fill="#444451" transform="translate(0,0)"/>
<path d="" fill="#51647C" transform="translate(0,0)"/>
<path d="" fill="#49637C" transform="translate(0,0)"/>
<path d="" fill="#444655" transform="translate(0,0)"/>
<path d="" fill="#3F4251" transform="translate(0,0)"/>
<path d="" fill="#434553" transform="translate(0,0)"/>
<path d="" fill="#444751" transform="translate(0,0)"/>
<path d="" fill="#444755" transform="translate(0,0)"/>
<path d="" fill="#545665" transform="translate(0,0)"/>
<path d="" fill="#434452" transform="translate(0,0)"/>
<path d="" fill="#444553" transform="translate(0,0)"/>
<path d="" fill="#4E5365" transform="translate(0,0)"/>
<path d="" fill="#3899D1" transform="translate(0,0)"/>
<path d="" fill="#399DD4" transform="translate(0,0)"/>
<path d="" fill="#4F5464" transform="translate(0,0)"/>
<path d="" fill="#434452" transform="translate(0,0)"/>
<path d="" fill="#454654" transform="translate(0,0)"/>
<path d="" fill="#484C56" transform="translate(0,0)"/>
<path d="" fill="#4F4D5A" transform="translate(0,0)"/>
<path d="" fill="#504E5C" transform="translate(0,0)"/>
<path d="" fill="#4D4E5A" transform="translate(0,0)"/>
<path d="" fill="#4B4C5B" transform="translate(0,0)"/>
<path d="" fill="#494A55" transform="translate(0,0)"/>
<path d="" fill="#494A57" transform="translate(0,0)"/>
<path d="" fill="#4C4D59" transform="translate(0,0)"/>
<path d="" fill="#454855" transform="translate(0,0)"/>
<path d="" fill="#585A66" transform="translate(0,0)"/>
<path d="" fill="#4C4A59" transform="translate(0,0)"/>
<path d="" fill="#484B56" transform="translate(0,0)"/>
<path d="" fill="#575E6B" transform="translate(0,0)"/>
<path d="" fill="#36A4E0" transform="translate(0,0)"/>
<path d="" fill="#4E535F" transform="translate(0,0)"/>
<path d="" fill="#535965" transform="translate(0,0)"/>
<path d="" fill="#545968" transform="translate(0,0)"/>
<path d="" fill="#34A7E0" transform="translate(0,0)"/>
</svg>
